<?xml version="1.0" encoding="utf-8"?>
<!-- Svg Vector Icons : http://www.onlinewebfonts.com/icon -->
<!DOCTYPE svg PUBLIC "-//W3C//DTD SVG 1.1//EN" "http://www.w3.org/Graphics/SVG/1.1/DTD/svg11.dtd">
<svg version="1.1" xmlns="http://www.w3.org/2000/svg" xmlns:xlink="http://www.w3.org/1999/xlink" x="0px" y="0px" viewBox="0 0 1000 1000" enable-background="new 0 0 1000 1000" xml:space="preserve">
<metadata> Svg Vector Icons : http://www.onlinewebfonts.com/icon </metadata>
<g><g transform="translate(0.000000,511.000000) scale(0.100000,-0.100000)"><path d="M3281.8,4986.4c-635.9-108.8-1088.5-653.1-1088.5-1306.1c0-853.6,813.5-1472.3,1647-1254.6c432.5,111.7,816.3,492.6,930.9,922.3c48.7,191.9,40.1,541.4-22.9,739c-146.1,469.7-552.8,819.2-1042.6,899.4C3505.2,5017.9,3468,5017.9,3281.8,4986.4z"/><path d="M1531.7,1827c-146.1-43-280.7-128.9-369.5-243.5c-143.2-177.6-143.2-189-143.2-1541v-1271.7h1758.7h1758.7l234.9,418.2c128.9,232,275,495.5,320.8,587.2c128.9,249.2,375.2,466.9,613,541.4c103.1,31.5,214.8,57.3,246.4,57.3c54.4,0,57.3,17.2,45.8,481.2c-11.4,532.8-34.4,613-229.2,799.2c-211.9,203.4-114.6,194.8-2214.1,200.5C2118.9,1861.4,1632,1852.8,1531.7,1827z"/><path d="M7879.1,1171c-137.5-352.3-283.6-718.9-320.8-816.3c-48.7-120.3-88.8-180.4-120.3-180.4c-160.4,0-372.4-123.2-449.7-266.4c-25.8-45.8-57.3-37.3-395.3,94.5c-464,183.3-653.1,194.8-930.9,54.4c-166.1-83-317.9-237.7-369.5-369.5c-8.6-22.9-355.2-644.5-770.5-1380.6c-412.5-733.3-753.3-1346.2-753.3-1360.6c0-37.2,4413.9-1764.4,4436.9-1735.8c11.4,11.4,171.9,661.7,358,1440.8c186.2,779.1,355.2,1480.9,381,1558.2c65.9,206.3,40.1,518.5-60.2,687.4c-114.6,197.7-263.5,303.6-621.5,446.9l-326.5,131.8l-14.3,183.3c-17.2,200.5-43,266.4-151.8,366.6l-68.8,65.9l323.7,822.1l323.7,819.2l-88.8,37.2c-48.7,20.1-97.4,37.2-108.8,37.2C8136.9,1806.9,8016.6,1520.5,7879.1,1171z M7535.4-95c108.8-45.8,157.5-120.3,157.5-243.5v-88.8l-177.6,68.7c-383.8,146.1-352.3,126-292.2,192c48.7,57.3,137.5,105.9,191.9,108.8C7426.6-54.9,7480.9-72.1,7535.4-95z M7314.8-530.4c627.3-243.5,1177.3-475.5,1225.9-512.7c131.8-103.1,217.7-292.2,206.2-469.7l-8.6-143.2l-1604,630.2C6252.2-679.3,5527.5-390,5521.8-387.2c-20.1,22.9,154.7,197.6,249.2,246.3C5994.4-23.4,6074.6-43.5,7314.8-530.4z M7062.8-1243.6c873.6-343.7,1595.4-630.1,1601.2-633c22.9-20-610.1-2618-641.6-2618c-37.2,0-478.3,174.7-512.7,203.4c-11.4,11.5,34.4,171.9,108.9,358.1c71.6,183.3,131.7,349.4,131.7,366.6c0,65.9-54.4-43-171.9-340.8c-68.8-171.9-131.7-323.7-140.4-335.1c-25.8-28.6-403.9,117.5-403.9,151.8c0,14.3,57.3,171.9,128.9,346.6c71.6,177.6,128.9,335.1,128.9,349.4c0,74.5-65.9-51.5-180.4-355.2c-71.6-180.4-137.5-329.4-149-326.5c-51.6,2.9-386.7,140.4-386.7,157.6c0,11.4,57.3,169,128.9,352.3c71.6,183.3,128.9,343.7,128.9,352.3c0,60.1-68.8-71.6-171.9-335.1c-65.9-166.1-128.9-312.2-143.2-323.7c-25.8-31.5-372.4,91.6-389.5,134.6c-5.7,17.2,45.8,177.6,117.4,352.3c71.6,177.6,128.9,338,128.9,358c0,74.5-54.4-31.5-171.9-335.1c-65.9-171.9-128.9-326.5-143.2-338c-20.1-22.9-401,114.6-401,148.9c0,8.6,57.3,166.2,128.9,346.6s128.9,340.8,128.9,355.2c0,83.1-85.9-106-289.3-635.9l-25.8-63l-191.9,71.6c-106,40.1-197.6,80.2-206.2,85.9c-5.7,8.6,48.7,166.1,120.3,352.3c137.5,340.9,157.5,412.5,108.8,360.9c-22.9-20-94.5-189-263.5-633l-22.9-63l-180.4,71.6c-100.2,40.1-191.9,83.1-203.4,94.5c-11.5,11.5,37.2,171.9,108.8,358c71.6,183.3,128.9,349.5,128.9,366.7c0,71.6-51.6-31.5-171.9-343.7c-68.7-177.6-134.6-329.4-146.1-338c-37.2-22.9-584.3,203.4-578.6,240.6c20,88.8,1309,2325.9,1337.7,2317.3C5458.7-616.3,6189.1-899.9,7062.8-1243.6z"/></g></g>
</svg>