<?xml version="1.0" encoding="utf-8"?>
<!-- Svg Vector Icons : http://www.onlinewebfonts.com/icon -->
<!DOCTYPE svg PUBLIC "-//W3C//DTD SVG 1.1//EN" "http://www.w3.org/Graphics/SVG/1.1/DTD/svg11.dtd">
<svg version="1.1" xmlns="http://www.w3.org/2000/svg" xmlns:xlink="http://www.w3.org/1999/xlink" x="0px" y="0px" viewBox="0 0 1000 1000" enable-background="new 0 0 1000 1000" xml:space="preserve">
<metadata> Svg Vector Icons : http://www.onlinewebfonts.com/icon </metadata>
<g><g transform="translate(0.000000,511.000000) scale(0.100000,-0.100000)"><path d="M8129.9,4341.5c-128.6-27.7-261.2-98.9-366-195.9c-138.5-132.6-2043.8-3056.8-2028-3116.1c21.8-85.1,213.7-348.2,338.3-463c203.8-186,500.6-306.7,795.4-324.5l120.7-5.9l963.5,1474c530.2,811.2,987.3,1523.4,1017,1582.8c45.5,95,51.4,134.5,51.4,306.7c0,184-4,207.7-63.3,328.4c-79.1,158.3-201.8,277-368,354.2C8454.4,4345.4,8264.4,4371.2,8129.9,4341.5z"/><path d="M2237.9,3279c-5.9-19.8-27.7-114.7-49.5-209.7c-140.5-603.4-443.2-937.8-1007.1-1113.9c-132.6-41.6-221.6-79.1-215.7-93c4-11.9,95-49.5,203.8-83.1c587.6-186,866.6-494.6,1022.9-1133.7c33.6-134.5,67.3-235.4,75.2-227.5c7.9,7.9,37.6,110.8,65.3,227.5c89,373.9,217.6,621.2,419.4,805.2c160.3,146.4,314.6,231.5,573.8,316.6c128.6,41.6,237.4,85.1,241.4,96.9c4,11.9-85.1,47.5-197.8,83.1c-302.7,93-453.1,180-641,366c-203.8,201.8-298.8,387.8-387.8,747.9C2281.4,3304.8,2259.7,3350.3,2237.9,3279z"/><path d="M4837.7,590.2C3527.9,79.8,2125.1-476.2,2028.2-523.7c-59.4-27.7-124.6-75.2-144.4-104.9c-55.4-75.2-65.3-223.6-23.7-362.1c65.3-225.6,282.9-603.4,346.2-603.4c59.4,0,591.6,176.1,817.1,271.1c116.7,49.5,306.7,146.4,419.4,213.7c114.7,69.2,207.7,120.7,207.7,116.7c0-3.9-63.3-112.8-140.5-241.4c-158.3-261.2-411.5-761.7-512.4-1011l-67.3-168.2l108.8-96.9c110.8-100.9,619.3-490.7,686.5-526.3c31.7-15.8,63.3,0,193.9,104.9c85.1,69.2,229.5,201.8,320.5,292.8c89,93,162.2,164.2,162.2,160.2c0-5.9-25.7-100.9-59.4-211.7c-95-326.5-162.2-629.2-144.4-647c37.6-37.6,536.2-294.8,755.8-393.7l239.4-104.9l110.8,122.7c188,207.7,360.1,419.4,488.7,603.4c201.8,286.9,189.9,280.9,158.3,79.1c-27.7-174.1-23.8-743.9,5.9-959.6l11.9-93l162.2-25.7c223.6-35.6,512.4-33.6,645,7.9c116.7,33.6,201.8,104.9,235.4,195.9c19.8,53.4,0,724.1-89,2856.9l-35.6,813.2L6719.2-213c-395.7,53.4-704.3,197.9-973.4,455c-98.9,93-219.6,233.5-275,318.5c-53.4,83.1-108.8,166.2-122.7,184C5324.4,776.2,5282.8,764.4,4837.7,590.2z"/><path d="M8709.6-873.8c-69.2-284.9-158.3-466.9-304.7-623.2c-150.4-160.3-318.5-259.2-563.9-336.3c-106.8-33.6-193.9-69.2-193.9-77.1c0-9.9,37.6-27.7,85.1-41.6c286.9-77.2,453.1-162.2,627.2-328.4c172.1-160.3,275-354.2,350.2-662.8c29.7-118.7,59.3-213.7,67.3-213.7c5.9,0,31.7,87.1,57.4,193.9c61.3,277,182,516.4,336.3,670.7c134.5,134.5,348.2,257.2,544.1,310.6c65.3,19.8,134.5,37.6,154.3,43.5c67.3,19.8,29.7,45.5-158.3,104.9C9224-1683,8951-1380.3,8834.2-856c-25.7,104.9-51.4,191.9-57.4,191.9C8769-664.1,8739.3-759.1,8709.6-873.8z"/><path d="M924.2-2306.3c-124.6-486.7-298.8-700.4-660.8-813.2c-79.1-25.7-152.3-51.4-162.2-59.4c-9.9-7.9,45.5-33.6,122.7-57.4c263.1-81.1,466.9-235.4,567.8-435.3c41.6-81.1,102.9-273,138.5-425.4c13.9-51.4,21.8-33.6,67.3,138.5c61.3,227.5,112.8,334.4,213.7,447.1c106.8,116.7,233.5,197.9,401.6,255.2c83.1,27.7,152.3,59.4,152.3,69.2c0,11.9-53.4,37.6-120.7,61.3c-186,63.3-286.9,122.7-397.7,233.5c-122.7,120.7-197.8,269.1-257.2,500.6L946-2217.2L924.2-2306.3z"/></g></g>
</svg>