<?xml version="1.0" encoding="utf-8"?>
<!-- Svg Vector Icons : http://www.onlinewebfonts.com/icon -->
<!DOCTYPE svg PUBLIC "-//W3C//DTD SVG 1.1//EN" "http://www.w3.org/Graphics/SVG/1.1/DTD/svg11.dtd">
<svg version="1.1" xmlns="http://www.w3.org/2000/svg" xmlns:xlink="http://www.w3.org/1999/xlink" x="0px" y="0px" viewBox="0 0 1000 1000" enable-background="new 0 0 1000 1000" xml:space="preserve">
<metadata> Svg Vector Icons : http://www.onlinewebfonts.com/icon </metadata>
<g><path d="M990,182.5c0,213,0,426,0,639c-4.8,18-6.3,37.7-14.9,53.6c-31.6,58.1-75.4,102-145.1,111.4c-3,0.4-5.7,2.4-8.6,3.6c-213,0-426,0-639,0c-3.5-1.3-6.9-3.2-10.5-3.8c-53.6-8.9-93-37.8-125.1-81.4c-20.9-28.4-26-60.2-33.1-92.4c-0.8-3.6-2.5-7-3.8-10.6c0-199.9,0-399.8,0-599.8c2.6-9.8,6-19.5,7.6-29.5c8.8-53.3,36.9-92.9,80.4-124.8c28.7-21,60.7-27.2,93.5-34c3.6-0.7,7-2.5,10.5-3.8c199.9,0,399.8,0,599.8,0c3.5,1.3,6.9,3,10.6,3.8c20.8,4.9,43.9,5.4,62.2,15c58.5,31,102.4,75.2,111.8,145.1C986.8,176.9,988.8,179.6,990,182.5z M701.5,752.8c0-10.6,0-18.4,0-26.1c0-96.7,1.5-193.4-0.8-290.1c-0.8-34.1,7.4-59.1,33.8-81.4c26.8-22.7,50.8-49,73.8-75.5c16.5-19,13.8-35.8-3.7-53.5c-22.5-22.8-45.1-45.4-67.7-68.1c-28.9-29.1-44.1-29.6-73.8-1.1c-22.6,21.7-43.9,44.8-67.1,65.9c-7.3,6.6-18.9,11.7-28.6,11.8c-81,0.9-162,0.5-243,0.5c-7.7,0-15.3,0-25.1,0c0,40,0,77.5,0,116.4c-39.2,0-76.2,0-113.7,0c0,172.8,0,344.2,0,515.7c133.9,0,266.3,0,401.1,0c0-38.3,0-75.7,0-114.6C625.3,752.8,661.8,752.8,701.5,752.8z"/><path d="M565.7,529.3c0,105.5,0,210.9,0,317.9c-119.4,0-239,0-359.5,0c0-158.4,0-316.1,0-475.2c79,0,157.6,0,240.9,0c-18.1,18.1-33.6,35-50.7,50.2c-17.1,15.2-27.9,33.5-36.2,54.5c-20.2,51.4-42,102.2-62.2,153.7c-3.2,8.2-1.6,18.3-2.3,27.5c9.3-0.5,19.5,1.4,27.7-1.9c58.1-22.7,115.9-46.3,173.6-70.1c7.6-3.1,14.8-8.3,20.7-14.1c14.8-14.7,28.6-30.4,42.9-45.6C562.3,527.2,564,528.2,565.7,529.3z"/><path d="M679.9,415.8c0,104.6,0,209.2,0,315c-31.2,0-61.4,0-93.7,0c0-18.8,0-36.9,0-54.9c0-52.2-0.5-104.3,0.5-156.5c0.2-8.6,4.4-19,10.2-25.3c25.6-27.7,52.5-54.1,78.9-81C677.1,413.9,678.5,414.8,679.9,415.8z"/><path d="M320.7,351c0-32.2,0-62.6,0-93.6c79.6,0,158.1,0,239.2,0c-30.9,31.4-59.9,61-89.1,90.4c-2,2-5.8,3-8.8,3C415.2,351.1,368.4,351,320.7,351z"/><path d="M387.5,465.1c34.4,34.3,67.9,67.6,102.3,101.8c-38.2,15.4-77.9,32.5-118.7,46.7c-5.9,2.1-18-8.5-24.8-15.6c-4.1-4.3-6.7-14.2-4.6-19.5C356.2,540.2,372.1,502.6,387.5,465.1z"/></g>
</svg>