<?xml version="1.0" encoding="utf-8"?>
<!-- Svg Vector Icons : http://www.onlinewebfonts.com/icon -->
<!DOCTYPE svg PUBLIC "-//W3C//DTD SVG 1.1//EN" "http://www.w3.org/Graphics/SVG/1.1/DTD/svg11.dtd">
<svg version="1.1" xmlns="http://www.w3.org/2000/svg" xmlns:xlink="http://www.w3.org/1999/xlink" x="0px" y="0px" viewBox="0 0 1000 1000" enable-background="new 0 0 1000 1000" xml:space="preserve">
<metadata> Svg Vector Icons : http://www.onlinewebfonts.com/icon </metadata>
<g><path d="M500,108.1c101.5,0,183.7,77.3,183.7,172.6c0,28.6-7.5,55.6-20.6,79.4l148.7,108.4c18.4-12.2,40.8-19.3,65-19.3c62.5,0,113.2,47.6,113.2,106.4c0,58.7-50.7,106.3-113.2,106.3c-62.5,0-113.2-47.6-113.2-106.3c0-13.3,2.6-25.9,7.3-37.6L622.3,409.5c-24.6,20.6-55.2,35.1-89,40.9V616c66.1,14.2,115.4,69.8,115.4,136.2c0,77.2-66.6,139.7-148.7,139.7c-82.1,0-148.7-62.6-148.7-139.7c0-66.4,49.3-122,115.4-136.2V450.4c-33.8-5.8-64.4-20.3-89-40.9L229.1,517.9c4.7,11.7,7.3,24.4,7.3,37.6c0,58.7-50.7,106.3-113.2,106.3C60.7,661.8,10,614.2,10,555.5c0-58.7,50.7-106.4,113.2-106.4c24.2,0,46.6,7.2,65,19.3L336.9,360c-13.1-23.8-20.6-50.7-20.6-79.4C316.3,185.3,398.5,108.1,500,108.1L500,108.1L500,108.1z"/></g>
</svg>